<svg aria-hidden="true" style="position: absolute; width: 0; height: 0; overflow: hidden;" version="1.1" xmlns="http://www.w3.org/2000/svg" xmlns:xlink="http://www.w3.org/1999/xlink">
<defs>
<symbol id="lock" viewBox="0 0 24 32">
<path fill="none" stroke="#fff" style="stroke: var(--color1, #fff)" stroke-linejoin="round" stroke-linecap="round" stroke-miterlimit="4" stroke-width="3.8788" d="M6.505 12.187v-4.091c0-1.519 0.601-2.976 1.671-4.050s2.521-1.678 4.034-1.678c1.513 0 2.964 0.603 4.034 1.678s1.671 2.531 1.671 4.050v4.091"></path>
<path fill="#fff" style="fill: var(--color1, #fff)" d="M20.129 10.924h-15.837c-2.142 0-3.879 1.737-3.879 3.879v12.931c0 2.142 1.737 3.879 3.879 3.879h15.837c2.142 0 3.879-1.737 3.879-3.879v-12.931c0-2.142-1.737-3.879-3.879-3.879z"></path>
</symbol>
<symbol id="charts" viewBox="0 0 32 32">
<path fill="#fff" style="fill: var(--color1, #fff)" opacity="0.33996800000000005" d="M23.404 0h-14.741c-5.372 0-8.415 3.043-8.415 8.415v14.726c0 5.372 3.043 8.415 8.415 8.415h14.741c5.372 0 8.401-3.044 8.401-8.415v-14.726c0-5.372-3.029-8.415-8.401-8.415z"></path>
<path fill="#fff" style="fill: var(--color1, #fff)" opacity="0.84992" d="M8.719 11.627c-0.715 0-1.304 0.589-1.304 1.318v10.842c0 0.715 0.589 1.304 1.304 1.304 0.729 0 1.318-0.589 1.318-1.304v-10.842c0-0.729-0.589-1.318-1.318-1.318z"></path>
<path fill="#fff" style="fill: var(--color1, #fff)" opacity="0.84992" d="M16.082 6.452c-0.715 0-1.304 0.589-1.304 1.318v16.017c0 0.715 0.589 1.304 1.304 1.304 0.729 0 1.318-0.589 1.318-1.304v-16.017c0-0.729-0.589-1.318-1.318-1.318z"></path>
<path fill="#fff" style="fill: var(--color1, #fff)" opacity="0.84992" d="M23.348 17.349c-0.729 0-1.318 0.589-1.318 1.318v5.119c0 0.715 0.589 1.304 1.304 1.304 0.729 0 1.318-0.589 1.318-1.304v-5.119c0-0.729-0.589-1.318-1.304-1.318z"></path>
</symbol>
<symbol id="guarantee" viewBox="0 0 32 32">
<path fill="#fff" style="fill: var(--color1, #fff)" opacity="0.4" d="M15.75 31.509c-1.211 0-2.421-0.46-3.346-1.378l-1.15-1.15c-0.446-0.444-1.043-0.69-1.676-0.692h-1.618c-2.615 0-4.743-2.128-4.743-4.743v-1.619c-0.002-0.632-0.247-1.229-0.693-1.678l-1.131-1.129c-1.852-1.841-1.86-4.851-0.017-6.705l1.15-1.151c0.444-0.446 0.69-1.043 0.691-1.676v-1.616c0-2.616 2.128-4.744 4.743-4.744h1.619c0.632 0 1.227-0.246 1.676-0.695l1.133-1.129c1.841-1.852 4.85-1.862 6.705-0.017l1.15 1.15c0.447 0.446 1.043 0.691 1.674 0.691h1.619c2.615 0 4.743 2.128 4.743 4.744v1.618c0.002 0.632 0.247 1.229 0.693 1.678l1.131 1.131c0.896 0.892 1.392 2.079 1.397 3.347 0.003 1.26-0.482 2.446-1.366 3.342-0.016 0.016-0.030 0.033-0.046 0.047l-1.118 1.118c-0.444 0.446-0.69 1.043-0.692 1.676v1.618c0 2.615-2.128 4.743-4.743 4.743h-1.619c-0.632 0.002-1.229 0.247-1.676 0.693l-1.133 1.131c-0.923 0.929-2.142 1.396-3.36 1.396z"></path>
<path fill="#fff" style="fill: var(--color1, #fff)" d="M7.729 20.264c-0.051 0-0.093 0-0.127 0-0.025 0.008-0.059 0.013-0.102 0.013-0.203 0-0.364-0.051-0.483-0.152-0.11-0.093-0.165-0.212-0.165-0.356 0-0.161 0.093-0.322 0.28-0.483 0.534-0.246 0.991-0.555 1.372-0.928s0.682-0.822 0.902-1.347c-0.186 0.068-0.373 0.119-0.559 0.153-0.186 0.025-0.377 0.038-0.572 0.038-0.449 0-0.839-0.072-1.169-0.216-0.322-0.144-0.593-0.326-0.813-0.546-0.22-0.229-0.385-0.483-0.496-0.762-0.102-0.28-0.152-0.555-0.152-0.826 0-0.313 0.064-0.627 0.191-0.94 0.127-0.322 0.309-0.606 0.546-0.851 0.246-0.254 0.546-0.457 0.902-0.61 0.364-0.161 0.784-0.241 1.258-0.241 0.441 0 0.822 0.085 1.144 0.254s0.585 0.394 0.788 0.673c0.203 0.271 0.352 0.585 0.445 0.94s0.131 0.72 0.114 1.093c0 0.551-0.076 1.080-0.229 1.588-0.144 0.5-0.36 0.97-0.648 1.41-0.28 0.432-0.627 0.826-1.042 1.182-0.407 0.356-0.868 0.661-1.385 0.915zM8.263 16.096c0.263 0 0.525-0.055 0.788-0.165 0.271-0.11 0.517-0.25 0.737-0.419-0.017 0-0.021-0.038-0.013-0.114 0.017-0.085 0.025-0.165 0.025-0.241 0-0.237-0.021-0.466-0.063-0.686-0.042-0.229-0.114-0.428-0.216-0.597-0.102-0.178-0.237-0.318-0.407-0.419-0.169-0.11-0.381-0.165-0.635-0.165-0.212 0-0.415 0.042-0.61 0.127-0.186 0.076-0.356 0.186-0.508 0.33-0.144 0.136-0.258 0.301-0.343 0.496s-0.127 0.402-0.127 0.623c0 0.195 0.038 0.369 0.114 0.521 0.085 0.144 0.191 0.271 0.318 0.381s0.271 0.195 0.432 0.254c0.169 0.051 0.339 0.076 0.508 0.076z"></path>
<path fill="#fff" style="fill: var(--color1, #fff)" d="M13.877 20.264c-0.051 0-0.093 0-0.127 0-0.025 0.008-0.059 0.013-0.102 0.013-0.203 0-0.364-0.051-0.483-0.152-0.11-0.093-0.165-0.212-0.165-0.356 0-0.161 0.093-0.322 0.28-0.483 0.534-0.246 0.991-0.555 1.372-0.928s0.682-0.822 0.902-1.347c-0.186 0.068-0.373 0.119-0.559 0.153-0.186 0.025-0.377 0.038-0.572 0.038-0.449 0-0.839-0.072-1.169-0.216-0.322-0.144-0.593-0.326-0.813-0.546-0.22-0.229-0.385-0.483-0.496-0.762-0.102-0.28-0.152-0.555-0.152-0.826 0-0.313 0.064-0.627 0.191-0.94 0.127-0.322 0.309-0.606 0.546-0.851 0.246-0.254 0.546-0.457 0.902-0.61 0.364-0.161 0.784-0.241 1.258-0.241 0.44 0 0.822 0.085 1.144 0.254s0.584 0.394 0.788 0.673c0.203 0.271 0.352 0.585 0.445 0.94s0.131 0.72 0.114 1.093c0 0.551-0.076 1.080-0.229 1.588-0.144 0.5-0.36 0.97-0.648 1.41-0.28 0.432-0.627 0.826-1.042 1.182-0.407 0.356-0.868 0.661-1.385 0.915zM14.411 16.096c0.263 0 0.525-0.055 0.788-0.165 0.271-0.11 0.517-0.25 0.737-0.419-0.017 0-0.021-0.038-0.013-0.114 0.017-0.085 0.025-0.165 0.025-0.241 0-0.237-0.021-0.466-0.064-0.686-0.042-0.229-0.114-0.428-0.216-0.597-0.102-0.178-0.237-0.318-0.407-0.419-0.169-0.11-0.381-0.165-0.635-0.165-0.212 0-0.415 0.042-0.61 0.127-0.186 0.076-0.356 0.186-0.508 0.33-0.144 0.136-0.258 0.301-0.343 0.496s-0.127 0.402-0.127 0.623c0 0.195 0.038 0.369 0.114 0.521 0.085 0.144 0.191 0.271 0.318 0.381s0.271 0.195 0.432 0.254c0.169 0.051 0.339 0.076 0.508 0.076z"></path>
<path fill="#fff" style="fill: var(--color1, #fff)" d="M24.077 11.368c0.127-0.119 0.288-0.178 0.483-0.178 0.161 0 0.297 0.051 0.407 0.152 0.119 0.102 0.178 0.229 0.178 0.381 0 0.042-0.004 0.085-0.013 0.127-0.008 0.034-0.021 0.072-0.038 0.114l-2.732 3.927-2.923 4.181c-0.076 0.102-0.165 0.169-0.267 0.203s-0.195 0.051-0.28 0.051c-0.161 0-0.301-0.047-0.419-0.14-0.11-0.093-0.165-0.22-0.165-0.381 0-0.059 0.008-0.119 0.025-0.178 0.017-0.068 0.047-0.136 0.089-0.203 0.508-0.712 0.991-1.398 1.449-2.059s0.915-1.317 1.372-1.97c0.449-0.644 0.906-1.296 1.372-1.957s0.949-1.347 1.449-2.059l0.013-0.013zM17.685 13.224c0.017-0.313 0.085-0.585 0.203-0.813s0.267-0.419 0.445-0.572 0.381-0.263 0.61-0.33c0.229-0.076 0.457-0.114 0.686-0.114 0.237 0 0.47 0.038 0.699 0.114s0.432 0.191 0.61 0.343c0.186 0.152 0.335 0.343 0.445 0.572 0.11 0.22 0.165 0.474 0.165 0.762s-0.059 0.551-0.178 0.788c-0.11 0.237-0.258 0.445-0.445 0.623-0.186 0.169-0.398 0.301-0.635 0.394s-0.483 0.14-0.737 0.14c-0.22 0-0.44-0.042-0.661-0.127-0.212-0.085-0.407-0.208-0.585-0.369-0.169-0.161-0.313-0.36-0.432-0.597-0.11-0.237-0.174-0.508-0.191-0.813zM22.057 18.37c0.017-0.305 0.081-0.568 0.191-0.788 0.119-0.229 0.267-0.415 0.445-0.559 0.178-0.152 0.377-0.263 0.597-0.33 0.22-0.076 0.445-0.114 0.674-0.114s0.453 0.038 0.673 0.114c0.229 0.076 0.432 0.191 0.61 0.343 0.186 0.144 0.335 0.326 0.445 0.546 0.11 0.212 0.165 0.462 0.165 0.75 0 0.296-0.055 0.563-0.165 0.801-0.102 0.237-0.241 0.436-0.419 0.597s-0.385 0.284-0.623 0.369c-0.229 0.085-0.466 0.127-0.712 0.127-0.212 0-0.424-0.038-0.635-0.114-0.212-0.068-0.407-0.178-0.584-0.33s-0.326-0.343-0.445-0.572c-0.119-0.237-0.191-0.517-0.216-0.839zM19.579 12.487c-0.102 0-0.191 0.025-0.267 0.076-0.068 0.042-0.127 0.102-0.178 0.178-0.051 0.068-0.093 0.148-0.127 0.241-0.025 0.085-0.047 0.169-0.064 0.254 0.025 0.263 0.106 0.453 0.241 0.572s0.288 0.178 0.457 0.178c0.161 0 0.309-0.063 0.445-0.191 0.144-0.127 0.216-0.318 0.216-0.572 0-0.203-0.076-0.377-0.229-0.521-0.144-0.144-0.309-0.216-0.496-0.216zM23.95 17.697c-0.22 0-0.377 0.072-0.47 0.216-0.085 0.144-0.14 0.297-0.165 0.457 0.025 0.246 0.102 0.432 0.229 0.559 0.127 0.119 0.275 0.178 0.445 0.178 0.144 0 0.284-0.059 0.419-0.178 0.136-0.127 0.203-0.313 0.203-0.559 0-0.212-0.068-0.377-0.203-0.496s-0.288-0.178-0.457-0.178z"></path>
</symbol>
<symbol id="money" viewBox="0 0 47 32">
<path fill="#fff" style="fill: var(--color1, #fff)" opacity="0.4" d="M41.104 5.084h-32.207c-3.074 0-5.565 2.492-5.565 5.565v15.403c0 3.074 2.492 5.565 5.565 5.565h32.207c3.074 0 5.565-2.492 5.565-5.565v-15.403c0-3.074-2.492-5.565-5.565-5.565z"></path>
<path fill="#fff" style="fill: var(--color1, #fff)" d="M36.673 0.228h-31.108c-3.074 0-5.565 2.492-5.565 5.565v15.403c0 3.074 2.492 5.565 5.565 5.565h31.108c3.074 0 5.565-2.492 5.565-5.565v-15.403c0-3.074-2.492-5.565-5.565-5.565z"></path>
<path fill="#0328ee" style="fill: var(--color2, #0328ee)" d="M21.119 19.123c3.109 0 5.629-2.52 5.629-5.629s-2.52-5.629-5.629-5.629-5.629 2.52-5.629 5.629c0 3.109 2.52 5.629 5.629 5.629z"></path>
<path fill="#0328ee" style="fill: var(--color2, #0328ee)" d="M8.437 11.537c1.586 0 2.872-1.286 2.872-2.872s-1.286-2.872-2.872-2.872c-1.586 0-2.872 1.286-2.872 2.872s1.286 2.872 2.872 2.872z"></path>
<path fill="#0328ee" style="fill: var(--color2, #0328ee)" d="M33.801 21.196c1.586 0 2.872-1.286 2.872-2.872s-1.286-2.872-2.872-2.872c-1.586 0-2.872 1.286-2.872 2.872s1.286 2.872 2.872 2.872z"></path>
</symbol>
<symbol id="lightning" viewBox="0 0 31 32">
<path fill="#fff" style="fill: var(--color1, #fff)" opacity="0.4" d="M15.214 31.233c8.403 0 15.214-6.812 15.214-15.214s-6.812-15.214-15.214-15.214-15.214 6.812-15.214 15.214c0 8.403 6.812 15.214 15.214 15.214z"></path>
<path fill="#fff" style="fill: var(--color1, #fff)" d="M18.192 6.623c0-0.385-0.466-0.578-0.738-0.306l-9.92 9.92c-0.104 0.104-0.175 0.237-0.204 0.382s-0.014 0.294 0.042 0.431c0.056 0.136 0.152 0.253 0.274 0.335s0.267 0.126 0.414 0.126h3.743c0.239 0 0.432 0.194 0.432 0.432v7.472c0 0.385 0.466 0.578 0.738 0.306l9.92-9.92c0.104-0.104 0.175-0.237 0.204-0.382s0.014-0.294-0.042-0.431c-0.056-0.136-0.152-0.253-0.274-0.335s-0.267-0.126-0.414-0.126h-3.743c-0.239 0-0.432-0.194-0.432-0.432v-7.472z"></path>
</symbol>
<symbol id="wallet" viewBox="0 0 35 32">
<path fill="#fff" style="fill: var(--color1, #fff)" opacity="0.84992" d="M34.532 9.979h-7.313c-3.403 0.006-6.16 2.688-6.166 5.998-0.005 3.318 2.755 6.012 6.166 6.016h7.319v0.527c0 5.788-3.517 9.21-9.468 9.21h-15.6c-5.953 0-9.47-3.422-9.47-9.21v-12.605c0-5.788 3.517-9.197 9.47-9.197h15.594c5.951 0 9.468 3.409 9.468 9.197v0.064zM8.185 9.965h9.758c0.729-0.003 1.319-0.581 1.316-1.292-0.003-0.709-0.599-1.283-1.328-1.28h-9.746c-0.724 0.003-1.312 0.575-1.316 1.281-0.003 0.709 0.586 1.287 1.316 1.29z"></path>
<path fill="#fff" style="fill: var(--color1, #fff)" opacity="0.33996800000000005" d="M24.241 16.735c0.361 1.639 1.801 2.792 3.445 2.762h5.612c0.684 0 1.239-0.565 1.239-1.264v-4.362c-0.001-0.697-0.555-1.264-1.239-1.265h-5.744c-1.87 0.006-3.381 1.555-3.378 3.463 0 0.224 0.022 0.447 0.065 0.666z"></path>
<path fill="#fff" style="fill: var(--color1, #fff)" opacity="0.84992" d="M27.63 17.775c0.954 0 1.727-0.771 1.727-1.723s-0.773-1.723-1.727-1.723c-0.954 0-1.727 0.771-1.727 1.723s0.773 1.723 1.727 1.723z"></path>
</symbol>
<symbol id="play-store" viewBox="0 0 28 32">
<path fill="#fff" style="fill: var(--color1, #fff)" d="M20.331 20.424l-4.249-4.257-14.061 14.28c0.134-0.051 0.265-0.112 0.39-0.183l17.921-9.84z"></path>
<path fill="#fff" style="fill: var(--color1, #fff)" d="M0.010 2.388c0.007 1.742 0.121 24.964 0.132 26.429-0.032 0.305 0.012 0.613 0.127 0.897s0.298 0.535 0.533 0.731l14.664-14.89-14.728-14.761c-0.254 0.175-0.456 0.416-0.585 0.697s-0.178 0.592-0.144 0.899z"></path>
<path fill="#fff" style="fill: var(--color1, #fff)" d="M21.118 11.054l-4.428 4.496 4.433 4.44 6.092-3.346c0.728-0.403 1.503-1.431 0-2.254l-6.097-3.336z"></path>
<path fill="#fff" style="fill: var(--color1, #fff)" d="M2.409 0.811c-0.195-0.103-0.407-0.17-0.625-0.196l14.293 14.319 4.249-4.315-17.917-9.808z"></path>
</symbol>
<symbol id="apple" viewBox="0 0 26 32">
<path fill="#fff" style="fill: var(--color1, #fff)" d="M3.305 27.495c1.162 1.673 2.751 3.961 4.802 3.961v-0.004h0.104c0.783-0.050 1.548-0.254 2.252-0.603h0.020c0.891-0.436 1.868-0.664 2.858-0.668 0.948 0.010 1.883 0.234 2.735 0.653h0.006c0.712 0.361 1.495 0.558 2.292 0.574h0.116c2.063-0.031 3.381-1.764 4.761-3.856 0.947-1.366 1.681-2.87 2.177-4.459v-0.008c-0.777-0.329-1.486-0.801-2.093-1.39-0.67-0.637-1.202-1.407-1.562-2.261s-0.541-1.775-0.531-2.703c0.019-1.205 0.339-2.385 0.93-3.433s1.433-1.929 2.45-2.564c-0.648-0.931-1.503-1.698-2.496-2.239s-2.098-0.842-3.226-0.879c-0.188-0.017-0.357-0.026-0.501-0.026-1.245 0.079-2.464 0.391-3.596 0.919h-0.024c-0.582 0.284-1.207 0.47-1.849 0.548-0.677-0.072-1.336-0.265-1.946-0.569h-0.022c-0.978-0.468-2.036-0.742-3.117-0.809h-0.089c-1.316 0.042-2.598 0.426-3.722 1.116s-2.051 1.662-2.692 2.821c-1.29 2.554-1.665 5.479-1.060 8.28 0.476 2.711 1.503 5.295 3.016 7.588l0.008 0.011z"></path>
<path fill="#fff" style="fill: var(--color1, #fff)" d="M12.686 7.25c0.102 0.009 0.204 0.013 0.306 0.012 0.837-0.043 1.655-0.262 2.402-0.645s1.405-0.919 1.932-1.575c1.168-1.405 1.742-3.215 1.599-5.042-1.777 0.187-3.419 1.042-4.598 2.395-1.164 1.335-1.754 3.082-1.64 4.855z"></path>
</symbol>
<symbol id="download" viewBox="0 0 34 32">
<path fill="#fff" style="fill: var(--color1, #fff)" opacity="0.4" d="M26.823 8.045c4.111 0 7.457 3.455 7.457 7.701v8.44c0 4.236-3.338 7.682-7.44 7.682h-18.644c-4.113 0-7.46-3.453-7.46-7.699v-8.44c0-4.236 3.339-7.684 7.444-7.684h18.644z"></path>
<path fill="#fff" style="fill: var(--color1, #fff)" d="M18.424 22.706l4.879-4.978c0.503-0.515 0.503-1.342-0.003-1.855-0.506-0.511-1.323-0.509-1.826 0.003l-2.672 2.726v-17.29c0-0.724-0.579-1.312-1.293-1.312-0.713 0-1.29 0.588-1.29 1.312v17.29l-2.674-2.726c-0.503-0.513-1.32-0.514-1.827-0.003-0.253 0.257-0.381 0.593-0.381 0.93 0 0.334 0.127 0.669 0.377 0.925l4.879 4.978c0.243 0.247 0.572 0.387 0.914 0.387 0.344 0 0.673-0.14 0.916-0.387z"></path>
</symbol>
<symbol id="profile" viewBox="0 0 25 32">
<path fill="#fff" style="fill: var(--color1, #fff)" d="M12.152 20.827c-6.554 0-12.149 1.048-12.149 5.234 0 4.185 5.561 5.27 12.149 5.27 6.552 0 12.149-1.048 12.149-5.234s-5.561-5.27-12.149-5.27z"></path>
<path fill="#fff" style="fill: var(--color1, #fff)" opacity="0.4" d="M12.152 16.84c4.462 0 8.039-3.623 8.039-8.143s-3.577-8.144-8.039-8.144c-4.462 0-8.039 3.625-8.039 8.144s3.577 8.143 8.039 8.143z"></path>
</symbol>
<symbol id="support" viewBox="0 0 32 32">
<path fill="#fff" style="fill: var(--color1, #fff)" d="M16.242 0.889c-8.922 0-15.386 7.279-15.386 15.356 0 2.58 0.752 5.236 2.073 7.662 0.246 0.399 0.276 0.906 0.107 1.382l-1.029 3.44c-0.23 0.829 0.476 1.443 1.259 1.198l3.102-0.921c0.845-0.276 1.505 0.077 2.29 0.553 2.242 1.321 5.035 1.996 7.553 1.996 7.616 0 15.355-5.881 15.355-15.355 0-8.169-6.603-15.309-15.325-15.309z"></path>
<path fill="#0328ee" style="fill: var(--color2, #0328ee)" d="M9.102 18.225c-1.075 0-1.966-0.891-1.966-1.965 0-1.090 0.875-1.966 1.966-1.966s1.966 0.875 1.966 1.966c0 1.075-0.875 1.95-1.966 1.965zM16.181 18.226c-1.090-0.015-1.966-0.891-1.966-1.981 0-1.075 0.891-1.966 1.966-1.95 1.090 0 1.965 0.875 1.965 1.966 0 1.075-0.875 1.965-1.965 1.965zM21.295 16.26c0 1.075 0.875 1.965 1.965 1.965s1.965-0.891 1.965-1.965c0-1.090-0.875-1.966-1.965-1.966s-1.965 0.875-1.965 1.966z"></path>
</symbol>
<symbol id="arrow-down" viewBox="0 0 32 32">
<path fill="#fff" style="fill: var(--color1, #fff)" opacity="0.4" d="M22.849 0h-14.501c-5.284 0-8.278 2.994-8.278 8.278v14.487c0 5.284 2.994 8.278 8.278 8.278h14.501c5.284 0 8.265-2.994 8.265-8.278v-14.487c0-5.284-2.98-8.278-8.265-8.278z"></path>
<path fill="none" stroke="#fff" style="stroke: var(--color1, #fff)" stroke-linejoin="round" stroke-linecap="round" stroke-miterlimit="4" stroke-width="2.5" d="M24.998 14.895v5.643h-5.643"></path>
<path fill="none" stroke="#fff" style="stroke: var(--color1, #fff)" stroke-linejoin="round" stroke-linecap="round" stroke-miterlimit="4" stroke-width="2.5" d="M24.998 20.538l-6.637-6.637c-0.116-0.117-0.255-0.209-0.407-0.272s-0.315-0.095-0.48-0.095c-0.165 0-0.328 0.033-0.48 0.095s-0.291 0.156-0.407 0.272l-2.615 2.615c-0.117 0.116-0.255 0.209-0.407 0.272s-0.315 0.096-0.48 0.096c-0.165 0-0.328-0.032-0.48-0.096s-0.29-0.155-0.407-0.272l-6.010-6.010"></path>
</symbol>
<symbol id="circle-arrows" viewBox="0 0 40 32">
<path fill="none" opacity="0.84992" stroke="#fff" style="stroke: var(--color1, #fff)" stroke-linejoin="round" stroke-linecap="round" stroke-miterlimit="4" stroke-width="3.3532" d="M29.751 6.47c-1.7-2.051-3.994-3.529-6.568-4.233s-5.305-0.6-7.818 0.299-4.686 2.548-6.223 4.723c-1.537 2.175-2.362 4.769-2.364 7.428v3.528"></path>
<path fill="none" opacity="0.84992" stroke="#fff" style="stroke: var(--color1, #fff)" stroke-linejoin="round" stroke-linecap="round" stroke-miterlimit="4" stroke-width="3.3532" d="M10.902 25.707c1.783 1.881 4.091 3.187 6.627 3.746s5.182 0.348 7.595-0.607c2.414-0.955 4.484-2.61 5.943-4.75s2.239-4.668 2.239-7.254v-2.349"></path>
<path fill="#fff" style="fill: var(--color1, #fff)" opacity="0.84992" d="M12.65 12.437c-0.007 0.141-0.054 0.279-0.138 0.398l-5.495 7.754c-0.152 0.213-0.401 0.335-0.663 0.321s-0.497-0.161-0.626-0.388l-4.651-8.284c-0.135-0.241-0.128-0.537 0.019-0.771 0.147-0.236 0.409-0.372 0.686-0.357l10.147 0.53c0.277 0.014 0.524 0.177 0.645 0.427 0.058 0.117 0.083 0.245 0.076 0.371z"></path>
<path fill="#fff" style="fill: var(--color1, #fff)" opacity="0.84992" d="M27.133 19.497c0.005-0.14 0.049-0.276 0.129-0.395l5.288-7.745c0.146-0.213 0.39-0.337 0.648-0.328s0.493 0.15 0.624 0.372l4.732 8.093c0.137 0.236 0.136 0.527-0.006 0.761-0.141 0.235-0.397 0.374-0.671 0.364l-10.020-0.349c-0.273-0.009-0.52-0.166-0.644-0.41-0.059-0.115-0.086-0.241-0.082-0.364z"></path>
</symbol>
<symbol id="arrows" viewBox="0 0 33 32">
<path fill="#fff" style="fill: var(--color1, #fff)" opacity="0.33996800000000005" d="M2.147 6.644h18.573c0.859 0 1.557 0.697 1.557 1.556s-0.697 1.556-1.557 1.556h-18.573c-0.859 0-1.557-0.697-1.557-1.556s0.697-1.556 1.557-1.556z"></path>
<path fill="#fff" style="fill: var(--color1, #fff)" opacity="0.84992" d="M20.11 0.143c0.196 0 0.39 0.055 0.561 0.161l11.124 7.006c0.305 0.193 0.492 0.528 0.492 0.889s-0.187 0.696-0.492 0.89l-11.124 7.006c-0.324 0.203-0.733 0.216-1.068 0.029-0.336-0.185-0.544-0.537-0.544-0.919v-14.012c0-0.382 0.207-0.734 0.544-0.919 0.158-0.088 0.334-0.132 0.507-0.132z"></path>
<path fill="#fff" style="fill: var(--color1, #fff)" opacity="0.33996800000000005" d="M30.688 25.022h-18.573c-0.859 0-1.557-0.697-1.557-1.556s0.697-1.556 1.557-1.556h18.573c0.859 0 1.557 0.697 1.557 1.556s-0.697 1.556-1.557 1.556z"></path>
<path fill="#fff" style="fill: var(--color1, #fff)" opacity="0.84992" d="M12.619 31.522c-0.196 0-0.39-0.055-0.561-0.161l-11.124-7.006c-0.306-0.193-0.492-0.528-0.492-0.89s0.186-0.696 0.492-0.89l11.124-7.006c0.324-0.203 0.733-0.216 1.068-0.030 0.336 0.185 0.544 0.537 0.544 0.919v14.012c0 0.382-0.207 0.734-0.544 0.919-0.158 0.088-0.334 0.132-0.507 0.132z"></path>
</symbol>
<symbol id="secutrity" viewBox="0 0 27 32">
<path fill="#fff" style="fill: var(--color1, #fff)" d="M13.917 31.46c-0.195 0-0.39-0.045-0.565-0.136l-5.665-2.932c-1.607-0.833-2.865-1.768-3.847-2.857-2.149-2.381-3.345-5.439-3.364-8.61l-0.067-10.438c-0.008-1.205 0.77-2.286 1.932-2.693l10.401-3.626c0.618-0.221 1.306-0.224 1.935-0.011l10.441 3.503c1.169 0.39 1.959 1.464 1.965 2.667l0.067 10.445c0.021 3.167-1.134 6.236-3.249 8.644-0.971 1.104-2.217 2.053-3.809 2.901l-5.614 2.998c-0.174 0.094-0.367 0.142-0.562 0.143z"></path>
<path fill="#0328ee" style="fill: var(--color2, #0328ee)" d="M12.71 19.38c-0.304 0.002-0.608-0.108-0.842-0.333l-3.015-2.9c-0.466-0.45-0.47-1.182-0.009-1.635 0.461-0.455 1.213-0.46 1.68-0.011l2.169 2.085 5.297-5.223c0.462-0.455 1.215-0.46 1.68-0.011 0.467 0.45 0.472 1.183 0.011 1.635l-6.133 6.048c-0.231 0.228-0.534 0.342-0.838 0.344z"></path>
</symbol>
<symbol id="company-1" viewBox="0 0 179 32">
<path fill="#fff" style="fill: var(--color1, #fff)" d="M62.611 23.021c-1.425 0-2.681-0.303-3.768-0.909s-1.95-1.451-2.587-2.534c-0.619-1.083-0.928-2.323-0.928-3.718s0.309-2.635 0.928-3.718c0.637-1.083 1.5-1.928 2.587-2.534s2.343-0.909 3.768-0.909c1.781 0 3.281 0.459 4.5 1.377 1.219 0.9 1.997 2.148 2.334 3.746h-3.797c-0.188-0.661-0.563-1.175-1.125-1.542-0.544-0.386-1.191-0.578-1.941-0.578-0.994 0-1.837 0.367-2.531 1.102s-1.041 1.754-1.041 3.057c0 1.304 0.347 2.323 1.041 3.057s1.537 1.102 2.531 1.102c0.75 0 1.397-0.184 1.941-0.551 0.562-0.367 0.937-0.891 1.125-1.57h3.797c-0.337 1.542-1.116 2.782-2.334 3.718s-2.718 1.405-4.5 1.405z"></path>
<path fill="#fff" style="fill: var(--color1, #fff)" d="M78.771 23.021c-1.35 0-2.569-0.303-3.656-0.909-1.069-0.606-1.922-1.441-2.559-2.506-0.619-1.083-0.928-2.332-0.928-3.746s0.319-2.653 0.956-3.718c0.637-1.083 1.49-1.928 2.559-2.534 1.087-0.606 2.306-0.909 3.656-0.909 1.331 0 2.531 0.303 3.6 0.909 1.087 0.606 1.94 1.451 2.559 2.534 0.637 1.065 0.956 2.304 0.956 3.718s-0.319 2.662-0.956 3.746c-0.619 1.065-1.472 1.901-2.559 2.506s-2.297 0.909-3.628 0.909zM78.771 19.963c0.937 0 1.753-0.34 2.447-1.019 0.694-0.698 1.041-1.726 1.041-3.085s-0.347-2.378-1.041-3.057c-0.694-0.698-1.5-1.047-2.419-1.047-0.956 0-1.781 0.349-2.475 1.047-0.675 0.679-1.012 1.698-1.012 3.057s0.337 2.387 1.012 3.085c0.694 0.679 1.509 1.019 2.447 1.019z"></path>
<path fill="#fff" style="fill: var(--color1, #fff)" d="M88.57 22.69v-13.661h3.177l0.309 1.845c0.451-0.661 1.041-1.184 1.773-1.57 0.749-0.404 1.612-0.606 2.587-0.606 2.156 0 3.684 0.817 4.584 2.451 0.507-0.753 1.181-1.35 2.025-1.79 0.863-0.441 1.8-0.661 2.813-0.661 1.819 0 3.215 0.533 4.19 1.598s1.462 2.626 1.462 4.682v7.712h-3.599v-7.381c0-1.175-0.235-2.075-0.703-2.699-0.45-0.624-1.153-0.937-2.109-0.937-0.975 0-1.763 0.349-2.363 1.047-0.581 0.698-0.871 1.671-0.871 2.919v7.051h-3.6v-7.381c0-1.175-0.235-2.075-0.703-2.699s-1.19-0.937-2.165-0.937c-0.957 0-1.734 0.349-2.334 1.047-0.581 0.698-0.872 1.671-0.872 2.919v7.051h-3.6z"></path>
<path fill="#fff" style="fill: var(--color1, #fff)" d="M114.345 28.75v-19.721h3.206l0.394 1.956c0.45-0.606 1.041-1.138 1.771-1.598 0.75-0.459 1.716-0.689 2.897-0.689 1.312 0 2.484 0.312 3.516 0.936s1.846 1.478 2.446 2.562c0.6 1.083 0.901 2.314 0.901 3.691s-0.301 2.607-0.901 3.691c-0.6 1.065-1.415 1.91-2.446 2.534-1.031 0.606-2.204 0.909-3.516 0.909-1.050 0-1.969-0.193-2.756-0.578s-1.425-0.927-1.912-1.625v7.932h-3.6zM121.854 19.936c1.143 0 2.091-0.376 2.84-1.129s1.125-1.726 1.125-2.919c0-1.194-0.375-2.176-1.125-2.947s-1.697-1.157-2.84-1.157c-1.163 0-2.119 0.386-2.869 1.157-0.731 0.753-1.097 1.726-1.097 2.92s0.365 2.176 1.097 2.947c0.749 0.753 1.706 1.129 2.869 1.129z"></path>
<path fill="#fff" style="fill: var(--color1, #fff)" d="M136.937 23.021c-1.2 0-2.184-0.184-2.952-0.551-0.769-0.386-1.341-0.891-1.716-1.515s-0.563-1.313-0.563-2.066c0-1.267 0.506-2.295 1.518-3.085s2.531-1.184 4.556-1.184h3.543v-0.33c0-0.937-0.272-1.625-0.815-2.066-0.544-0.441-1.219-0.661-2.025-0.661-0.731 0-1.368 0.174-1.912 0.523-0.544 0.331-0.881 0.826-1.013 1.487h-3.514c0.093-0.992 0.431-1.855 1.012-2.589 0.6-0.734 1.368-1.295 2.306-1.68 0.937-0.404 1.988-0.606 3.149-0.606 1.988 0 3.553 0.487 4.697 1.46s1.715 2.35 1.715 4.132v8.401h-3.065l-0.337-2.203c-0.412 0.735-0.993 1.341-1.744 1.818-0.731 0.477-1.677 0.716-2.84 0.716zM137.753 20.266c1.031 0 1.828-0.331 2.389-0.992 0.581-0.661 0.948-1.478 1.097-2.451h-3.065c-0.956 0-1.64 0.175-2.053 0.523-0.412 0.331-0.619 0.744-0.619 1.239 0 0.533 0.207 0.946 0.619 1.239 0.413 0.294 0.957 0.441 1.632 0.441z"></path>
<path fill="#fff" style="fill: var(--color1, #fff)" d="M147.797 22.69v-13.661h3.177l0.281 2.314c0.431-0.808 1.049-1.451 1.856-1.928 0.825-0.477 1.791-0.716 2.897-0.716 1.724 0 3.065 0.533 4.021 1.598s1.435 2.626 1.435 4.682v7.712h-3.6v-7.381c0-1.175-0.244-2.075-0.732-2.699-0.487-0.624-1.247-0.937-2.277-0.937-1.012 0-1.847 0.349-2.503 1.047-0.637 0.698-0.957 1.671-0.957 2.919v7.051h-3.599z"></path>
<path fill="#fff" style="fill: var(--color1, #fff)" d="M165.621 28.75l3.233-6.968h-0.843l-5.428-12.752h3.909l3.908 9.613 4.079-9.613h3.825l-8.859 19.721h-3.825z"></path>
<path fill="#0328ee" style="fill: var(--color2, #0328ee)" d="M14.299 26.375c-0.941 0.921-2.466 0.92-3.405-0.003l-8.988-8.833c-0.937-0.92-0.935-2.41 0.003-3.329l8.988-8.802c0.938-0.919 2.459-0.92 3.399-0.003l9.019 8.802c0.942 0.92 0.943 2.413 0.003 3.335l-9.019 8.833z"></path>
<path fill="#fff" style="fill: var(--color1, #fff)" d="M26.723 26.371c-0.939 0.923-2.464 0.924-3.405 0.003l-9.019-8.833c-0.941-0.921-0.939-2.415 0.003-3.335l9.019-8.802c0.94-0.917 2.461-0.916 3.399 0.003l8.988 8.802c0.938 0.919 0.939 2.408 0.003 3.329l-8.988 8.833z"></path>
<path fill="#0328ee" style="fill: var(--color2, #0328ee)" d="M35.932 26.373c-0.94 0.922-2.465 0.922-3.405 0l-9.005-8.833c-0.939-0.921-0.937-2.413 0.003-3.332l9.005-8.803c0.939-0.918 2.46-0.918 3.399 0l9.005 8.803c0.94 0.919 0.942 2.411 0.003 3.332l-9.005 8.833z"></path>
</symbol>
<symbol id="company-2" viewBox="0 0 179 32">
<path fill="#fff" style="fill: var(--color1, #fff)" d="M62.925 17.377c-1.226 1.989-2.971 3.134-5.233 3.134-3.27 0-5.669-2.644-5.669-6.050s2.289-6.023 5.723-6.023c2.18 0 4.142 1.226 5.123 3.080l3.161-2.507c-1.608-2.862-4.524-4.578-8.23-4.578-5.941 0-10.111 4.415-10.111 10.029s4.251 10.056 10.056 10.056c3.652 0 6.704-1.935 8.367-4.687l-3.188-2.453z"></path>
<path fill="#fff" style="fill: var(--color1, #fff)" d="M74.77 9.883c-4.36 0-7.495 3.161-7.495 7.304 0 4.115 3.134 7.331 7.495 7.331s7.495-3.216 7.495-7.331c0-4.142-3.134-7.304-7.495-7.304zM74.77 13.562c1.881 0 3.298 1.445 3.298 3.625s-1.417 3.652-3.298 3.652c-1.88 0-3.297-1.472-3.297-3.652s1.417-3.625 3.297-3.625z"></path>
<path fill="#fff" style="fill: var(--color1, #fff)" d="M84.972 10.21v13.981h4.143v-7.277c0-1.826 0.954-3.379 2.698-3.379 1.526 0 2.507 0.954 2.507 2.78v7.876h4.142v-7.277c0-1.826 0.954-3.379 2.698-3.379 1.526 0 2.48 0.954 2.48 2.78v7.876h4.142v-8.503c0-3.625-2.044-5.805-5.396-5.805-2.371 0-3.706 1.036-4.715 2.453-0.954-1.553-2.48-2.453-4.633-2.453-1.826 0-3.188 0.709-4.088 2.126v-1.799h-3.979z"></path>
<path fill="#fff" style="fill: var(--color1, #fff)" d="M118.651 13.535c1.771 0 3.243 1.444 3.243 3.706 0 2.18-1.472 3.625-3.243 3.625-1.853 0-3.298-1.417-3.298-3.625 0-2.289 1.445-3.706 3.298-3.706zM115.163 10.21h-3.843v19.431h4.142v-6.977c0.872 1.308 2.535 1.853 4.034 1.853 3.815 0 6.568-3.161 6.568-7.331 0-4.306-2.97-7.304-6.541-7.304-1.362 0-3.27 0.572-4.36 2.262v-1.935z"></path>
<path fill="#fff" style="fill: var(--color1, #fff)" d="M136.028 15.497l-3.815 0.736c-2.944 0.627-4.551 2.044-4.551 4.115 0 2.426 1.907 4.17 4.633 4.17 1.853 0 3.216-0.818 3.869-2.044v1.717h3.844v-8.803c0-3.407-2.317-5.505-6.215-5.505-2.616 0-4.714 1.090-5.995 2.643l2.153 2.616c0.845-0.954 2.044-1.69 3.597-1.69 1.417 0 2.48 0.545 2.48 1.935v0.109zM133.221 21.438c-0.981 0-1.608-0.545-1.608-1.335 0-0.763 0.546-1.254 1.662-1.445l2.78-0.545v0.409c0 1.663-1.117 2.916-2.835 2.916z"></path>
<path fill="#fff" style="fill: var(--color1, #fff)" d="M143.496 10.21v13.981h4.143v-7.277c0-1.826 0.955-3.379 2.753-3.379 1.527 0 2.507 0.954 2.507 2.78v7.876h4.143v-8.503c0-3.625-2.071-5.805-5.423-5.805-1.881 0-3.244 0.709-4.143 2.126v-1.799h-3.98z"></path>
<path fill="#fff" style="fill: var(--color1, #fff)" d="M163.805 23.673l-0.163 0.463c-0.6 1.989-1.608 2.344-2.699 2.344-0.464 0-1.172-0.055-1.908-0.463v3.434c0.627 0.3 1.527 0.518 2.507 0.518 2.644 0 4.333-1.254 5.723-4.633l6.105-15.125h-4.224l-3.271 9.157-3.243-9.157h-4.333l5.505 13.463z"></path>
<path fill="#fff" style="fill: var(--color1, #fff)" d="M23.023 2.539h-4.349c-0.454 0-0.822 0.368-0.822 0.822v23.156c0 0.454 0.368 0.822 0.822 0.822h4.349c0.454 0 0.823-0.368 0.823-0.822v-23.156c0-0.454-0.368-0.822-0.823-0.822z"></path>
<path fill="#0328ee" style="fill: var(--color2, #0328ee)" d="M31.887 27.34c2.814 0 5.095-2.281 5.095-5.095s-2.281-5.095-5.095-5.095c-2.814 0-5.095 2.281-5.095 5.095s2.281 5.095 5.095 5.095z"></path>
<path fill="#0328ee" style="fill: var(--color2, #0328ee)" d="M31.887 12.729c2.814 0 5.095-2.281 5.095-5.095s-2.281-5.095-5.095-5.095c-2.814 0-5.095 2.281-5.095 5.095s2.281 5.095 5.095 5.095z"></path>
<path fill="#0328ee" style="fill: var(--color2, #0328ee)" d="M9.809 27.34c2.814 0 5.095-2.281 5.095-5.095s-2.281-5.095-5.095-5.095-5.095 2.281-5.095 5.095c0 2.814 2.281 5.095 5.095 5.095z"></path>
</symbol>
<symbol id="company-3" viewBox="0 0 179 32">
<path fill="#fff" style="fill: var(--color1, #fff)" d="M41.315 13.636c0-1.845 0.412-3.493 1.236-4.944 0.842-1.469 1.979-2.606 3.412-3.412 1.451-0.824 3.072-1.236 4.863-1.236 2.096 0 3.932 0.537 5.508 1.612s2.678 2.561 3.305 4.46h-4.326c-0.43-0.896-1.039-1.567-1.827-2.015-0.77-0.448-1.666-0.672-2.687-0.672-1.093 0-2.069 0.26-2.929 0.779-0.842 0.502-1.505 1.218-1.988 2.149-0.466 0.931-0.699 2.024-0.699 3.278 0 1.236 0.233 2.329 0.699 3.278 0.484 0.931 1.146 1.657 1.988 2.176 0.86 0.502 1.836 0.752 2.929 0.752 1.021 0 1.917-0.224 2.687-0.672 0.788-0.466 1.397-1.146 1.827-2.042h4.326c-0.627 1.917-1.729 3.412-3.305 4.487-1.559 1.057-3.395 1.585-5.508 1.585-1.791 0-3.412-0.403-4.863-1.209-1.433-0.824-2.57-1.961-3.412-3.412-0.824-1.451-1.236-3.099-1.236-4.944z"></path>
<path fill="#fff" style="fill: var(--color1, #fff)" d="M69.463 23.282c-1.433 0-2.723-0.313-3.869-0.94-1.146-0.645-2.051-1.549-2.714-2.714-0.645-1.164-0.967-2.508-0.967-4.030s0.331-2.866 0.994-4.030c0.681-1.164 1.603-2.060 2.767-2.687 1.164-0.645 2.463-0.967 3.896-0.967s2.732 0.322 3.896 0.967c1.164 0.627 2.078 1.523 2.741 2.687 0.681 1.164 1.021 2.508 1.021 4.030s-0.349 2.866-1.048 4.030c-0.681 1.164-1.612 2.069-2.794 2.714-1.164 0.627-2.472 0.94-3.923 0.94zM69.463 20.004c0.681 0 1.317-0.161 1.908-0.484 0.609-0.34 1.093-0.842 1.451-1.505s0.537-1.469 0.537-2.418c0-1.415-0.376-2.499-1.129-3.251-0.734-0.77-1.639-1.155-2.714-1.155s-1.979 0.385-2.714 1.155c-0.717 0.752-1.075 1.836-1.075 3.251s0.349 2.508 1.048 3.278c0.717 0.752 1.612 1.129 2.687 1.129z"></path>
<path fill="#fff" style="fill: var(--color1, #fff)" d="M98.473 7.94c1.827 0 3.296 0.564 4.406 1.693 1.128 1.111 1.693 2.669 1.693 4.675v8.732h-3.762v-8.222c0-1.164-0.296-2.051-0.888-2.66-0.59-0.627-1.397-0.94-2.418-0.94s-1.836 0.313-2.445 0.94c-0.591 0.609-0.887 1.496-0.887 2.66v8.222h-3.762v-8.222c0-1.164-0.296-2.051-0.887-2.66-0.591-0.627-1.397-0.94-2.418-0.94-1.039 0-1.863 0.313-2.472 0.94-0.591 0.609-0.887 1.496-0.887 2.66v8.222h-3.762v-14.885h3.762v1.8c0.484-0.627 1.102-1.12 1.854-1.478 0.77-0.358 1.612-0.537 2.526-0.537 1.164 0 2.203 0.251 3.117 0.752 0.914 0.484 1.621 1.182 2.123 2.096 0.484-0.86 1.182-1.549 2.096-2.069 0.931-0.519 1.935-0.779 3.009-0.779z"></path>
<path fill="#fff" style="fill: var(--color1, #fff)" d="M111.904 10.304c0.484-0.681 1.146-1.245 1.988-1.693 0.86-0.466 1.836-0.699 2.929-0.699 1.272 0 2.419 0.313 3.439 0.94 1.039 0.627 1.855 1.523 2.445 2.687 0.61 1.146 0.914 2.481 0.914 4.003s-0.304 2.875-0.914 4.057c-0.59 1.164-1.406 2.069-2.445 2.714-1.021 0.645-2.167 0.967-3.439 0.967-1.092 0-2.059-0.224-2.901-0.672-0.824-0.448-1.495-1.012-2.015-1.693v9.216h-3.762v-21.979h3.762v2.15zM119.776 15.544c0-0.896-0.187-1.666-0.564-2.311-0.358-0.663-0.842-1.164-1.451-1.505-0.591-0.34-1.236-0.511-1.934-0.511-0.681 0-1.325 0.179-1.935 0.537-0.59 0.34-1.075 0.842-1.451 1.505-0.358 0.663-0.537 1.442-0.537 2.338s0.179 1.675 0.537 2.338c0.376 0.663 0.86 1.173 1.451 1.532 0.61 0.34 1.255 0.51 1.935 0.51 0.698 0 1.343-0.179 1.934-0.537 0.609-0.358 1.092-0.869 1.451-1.531 0.377-0.663 0.564-1.451 0.564-2.365z"></path>
<path fill="#fff" style="fill: var(--color1, #fff)" d="M125.384 15.544c0-1.505 0.296-2.839 0.887-4.003 0.609-1.164 1.425-2.060 2.445-2.687 1.039-0.627 2.194-0.94 3.467-0.94 1.111 0 2.078 0.224 2.902 0.672 0.841 0.448 1.513 1.012 2.016 1.693v-2.123h3.788v14.885h-3.788v-2.176c-0.484 0.699-1.156 1.281-2.016 1.746-0.843 0.448-1.818 0.672-2.929 0.672-1.254 0-2.4-0.322-3.439-0.967-1.021-0.645-1.836-1.549-2.445-2.714-0.59-1.182-0.887-2.535-0.887-4.057zM137.1 15.598c0-0.914-0.18-1.693-0.539-2.338-0.359-0.663-0.841-1.164-1.451-1.505-0.608-0.358-1.263-0.537-1.961-0.537s-1.343 0.17-1.934 0.511-1.075 0.842-1.451 1.505c-0.358 0.645-0.538 1.415-0.538 2.311s0.18 1.684 0.538 2.365c0.376 0.663 0.859 1.173 1.451 1.531 0.609 0.358 1.254 0.537 1.934 0.537 0.699 0 1.353-0.17 1.961-0.51 0.609-0.358 1.092-0.86 1.451-1.505 0.359-0.663 0.539-1.451 0.539-2.364z"></path>
<path fill="#fff" style="fill: var(--color1, #fff)" d="M152.811 7.94c1.773 0 3.207 0.564 4.299 1.693 1.093 1.111 1.639 2.669 1.639 4.675v8.732h-3.761v-8.222c0-1.182-0.296-2.087-0.887-2.714-0.592-0.645-1.397-0.967-2.417-0.967-1.040 0-1.864 0.322-2.473 0.967-0.591 0.627-0.885 1.531-0.885 2.714v8.222h-3.763v-14.885h3.763v1.854c0.5-0.645 1.136-1.146 1.907-1.505 0.788-0.376 1.648-0.564 2.58-0.564z"></path>
<path fill="#fff" style="fill: var(--color1, #fff)" d="M176.567 8.155l-9.216 21.925h-4.004l3.224-7.416-5.965-14.509h4.22l3.841 10.398 3.896-10.398h4.004z"></path>
<path fill="#0328ee" style="fill: var(--color2, #0328ee)" d="M13.112 29.935c-5.743 0-10.381-4.673-10.381-10.381s4.637-10.381 10.381-10.381c5.708 0 10.381 4.638 10.381 10.381-0.036 5.708-4.673 10.381-10.381 10.381z"></path>
<path fill="#fff" style="fill: var(--color1, #fff)" d="M28.456 2.539h-13.672c-0.923 0-1.672 0.748-1.672 1.672v13.672c0 0.923 0.748 1.672 1.672 1.672h13.672c0.923 0 1.672-0.749 1.672-1.672v-13.672c0-0.923-0.749-1.672-1.672-1.672z"></path>
</symbol>
<symbol id="company-4" viewBox="0 0 179 32">
<path fill="#0328ee" style="fill: var(--color2, #0328ee)" d="M24.86 14.347c-3.651 0-6.615-2.953-6.615-6.582 0-0.473 0.056-0.924 0.146-1.375h-8.79c-3.404 0-6.165 2.75-6.165 6.131v11.326c0 3.392 2.761 6.131 6.165 6.131h11.383c3.415 0 6.165-2.75 6.165-6.131v-9.917c-0.699 0.259-1.476 0.417-2.288 0.417z"></path>
<path fill="#0328ee" style="fill: var(--color2, #0328ee)" d="M27.158 23.847v-9.917c-0.71 0.259-1.488 0.417-2.288 0.417-3.651 0-6.615-2.953-6.615-6.582 0-0.473 0.056-0.924 0.147-1.375h-8.79c-3.381 0-6.12 2.705-6.165 6.063 8.114 3.347 16.454 7.416 23.667 12.171 0.023-0.259 0.045-0.518 0.045-0.778z"></path>
<path fill="#fff" style="fill: var(--color1, #fff)" d="M25.366 12.073c2.648 0 4.79-2.13 4.79-4.767 0-2.626-2.141-4.767-4.79-4.767s-4.79 2.13-4.79 4.767c0 2.626 2.141 4.767 4.79 4.767z"></path>
<path fill="#fff" style="fill: var(--color1, #fff)" d="M54.385 18.137c-0.189 0.801-0.507 1.579-0.954 2.333-0.448 0.731-1.001 1.39-1.661 1.979-0.66 0.565-1.414 1.025-2.262 1.378-0.848 0.33-1.755 0.495-2.722 0.495-1.107 0-2.156-0.212-3.146-0.636-0.966-0.448-1.826-1.049-2.58-1.803-0.73-0.754-1.319-1.626-1.767-2.616-0.424-1.013-0.636-2.097-0.636-3.252s0.212-2.227 0.636-3.216c0.448-1.013 1.037-1.897 1.767-2.651 0.754-0.754 1.614-1.343 2.58-1.767 0.99-0.448 2.038-0.672 3.146-0.672 0.966 0 1.873 0.177 2.722 0.53 0.848 0.33 1.602 0.789 2.262 1.378 0.66 0.566 1.213 1.225 1.661 1.979 0.448 0.73 0.766 1.496 0.954 2.297h-4.065c-0.189-0.424-0.448-0.801-0.778-1.131-0.283-0.283-0.648-0.542-1.096-0.778-0.448-0.259-1.001-0.389-1.661-0.389-1.155 0-2.121 0.401-2.898 1.202s-1.166 1.873-1.166 3.216c0 1.343 0.389 2.415 1.166 3.217s1.744 1.202 2.898 1.202c0.66 0 1.213-0.118 1.661-0.353s0.813-0.495 1.096-0.778c0.33-0.33 0.589-0.719 0.778-1.166h4.065z"></path>
<path fill="#fff" style="fill: var(--color1, #fff)" d="M61.101 16.017c0 1.343 0.389 2.415 1.166 3.217s1.744 1.202 2.898 1.202c1.155 0 2.121-0.401 2.898-1.202s1.166-1.873 1.166-3.217c0-1.343-0.389-2.415-1.166-3.216s-1.744-1.202-2.898-1.202c-1.155 0-2.121 0.401-2.898 1.202s-1.166 1.873-1.166 3.216zM73.295 16.017c0 1.155-0.224 2.239-0.672 3.252-0.424 0.99-1.013 1.862-1.767 2.616-0.731 0.754-1.591 1.355-2.58 1.803-0.966 0.424-2.003 0.636-3.11 0.636s-2.156-0.212-3.146-0.636c-0.966-0.448-1.826-1.049-2.58-1.803-0.731-0.754-1.32-1.626-1.767-2.616-0.424-1.013-0.636-2.097-0.636-3.252s0.212-2.227 0.636-3.216c0.448-1.013 1.037-1.897 1.767-2.651 0.754-0.754 1.614-1.343 2.58-1.767 0.99-0.448 2.038-0.672 3.146-0.672s2.144 0.224 3.11 0.672c0.99 0.424 1.85 1.013 2.58 1.767 0.754 0.754 1.343 1.638 1.767 2.651 0.448 0.99 0.672 2.062 0.672 3.216z"></path>
<path fill="#fff" style="fill: var(--color1, #fff)" d="M84.589 7.711c0.825 0 1.531 0.118 2.121 0.353 0.589 0.212 1.072 0.448 1.449 0.707 0.424 0.306 0.766 0.66 1.025 1.060 0.377-0.401 0.813-0.754 1.308-1.060 0.424-0.259 0.931-0.495 1.52-0.707 0.589-0.236 1.237-0.353 1.944-0.353 1.767 0 3.181 0.566 4.241 1.697s1.591 2.804 1.591 5.019v9.72h-4.065v-9.367c0-0.99-0.271-1.767-0.813-2.333-0.519-0.566-1.131-0.848-1.838-0.848s-1.331 0.283-1.873 0.848c-0.519 0.566-0.778 1.343-0.778 2.333v9.367h-4.065v-9.367c0-0.99-0.271-1.767-0.813-2.333-0.518-0.566-1.131-0.848-1.838-0.848s-1.331 0.283-1.873 0.848c-0.518 0.566-0.778 1.343-0.778 2.333v9.367h-4.065v-16.259h3.004l0.707 1.591c0.33-0.33 0.695-0.624 1.096-0.884 0.33-0.212 0.73-0.412 1.202-0.601s1.001-0.283 1.591-0.283z"></path>
<path fill="#fff" style="fill: var(--color1, #fff)" d="M112.512 7.711c1.014 0 1.98 0.212 2.899 0.636 0.919 0.401 1.72 0.978 2.403 1.732 0.707 0.73 1.261 1.602 1.661 2.616 0.424 1.013 0.636 2.121 0.636 3.322s-0.212 2.309-0.636 3.323c-0.4 1.013-0.955 1.897-1.661 2.651-0.684 0.731-1.485 1.308-2.403 1.732-0.919 0.401-1.885 0.601-2.899 0.601-0.684 0-1.284-0.083-1.802-0.247-0.495-0.165-0.931-0.342-1.308-0.53-0.424-0.236-0.801-0.507-1.131-0.813v7.069h-4.065v-21.914h3.004l0.707 1.591c0.353-0.33 0.766-0.624 1.237-0.884 0.401-0.212 0.884-0.412 1.45-0.601 0.565-0.189 1.201-0.283 1.908-0.283zM107.917 16.017c0 1.343 0.389 2.415 1.166 3.217 0.778 0.801 1.744 1.202 2.899 1.202s2.121-0.401 2.898-1.202c0.778-0.801 1.166-1.873 1.166-3.217s-0.388-2.415-1.166-3.216c-0.778-0.801-1.744-1.202-2.898-1.202s-2.121 0.401-2.899 1.202c-0.777 0.801-1.166 1.873-1.166 3.216z"></path>
<path fill="#fff" style="fill: var(--color1, #fff)" d="M130.543 7.711c0.919 0 1.767 0.165 2.545 0.495 0.778 0.306 1.449 0.742 2.014 1.308s1.001 1.237 1.308 2.015c0.329 0.778 0.495 1.626 0.495 2.545v10.073h-3.004l-0.707-1.591c-0.377 0.33-0.789 0.625-1.237 0.884-0.4 0.236-0.884 0.448-1.449 0.636-0.566 0.165-1.202 0.247-1.909 0.247-1.767 0-3.122-0.424-4.065-1.273-0.943-0.872-1.414-1.979-1.414-3.322 0-0.801 0.153-1.532 0.459-2.191 0.33-0.683 0.872-1.261 1.626-1.732 0.753-0.495 1.743-0.872 2.968-1.131 1.249-0.283 2.804-0.424 4.666-0.424 0-0.895-0.248-1.591-0.742-2.085-0.472-0.495-1.108-0.742-1.909-0.742-0.542 0-0.978 0.094-1.308 0.283-0.306 0.188-0.553 0.389-0.742 0.601-0.213 0.259-0.353 0.554-0.424 0.884h-4.065c0.094-0.754 0.306-1.461 0.636-2.121 0.353-0.66 0.825-1.237 1.414-1.732s1.285-0.884 2.086-1.166c0.824-0.306 1.744-0.459 2.757-0.459zM129.306 21.142c1.060 0 1.909-0.306 2.545-0.919 0.659-0.636 0.989-1.449 0.989-2.439v-0.707c-1.202 0-2.167 0.059-2.899 0.177-0.73 0.094-1.308 0.247-1.731 0.46-0.401 0.189-0.672 0.424-0.814 0.707s-0.212 0.601-0.212 0.954c0 0.448 0.2 0.86 0.601 1.237 0.4 0.353 0.907 0.53 1.52 0.53z"></path>
<path fill="#fff" style="fill: var(--color1, #fff)" d="M149.616 7.711c0.967 0 1.849 0.165 2.651 0.495 0.801 0.306 1.485 0.766 2.051 1.378 0.589 0.589 1.036 1.308 1.343 2.156 0.329 0.848 0.495 1.803 0.495 2.863v9.543h-4.064v-9.013c0-1.060-0.319-1.909-0.955-2.545-0.613-0.66-1.415-0.99-2.404-0.99s-1.801 0.33-2.439 0.99c-0.613 0.636-0.919 1.485-0.919 2.545v9.013h-4.064v-16.259h3.004l0.707 1.591c0.401-0.33 0.836-0.624 1.308-0.884 0.4-0.212 0.872-0.412 1.413-0.601 0.565-0.189 1.189-0.283 1.873-0.283z"></path>
<path fill="#fff" style="fill: var(--color1, #fff)" d="M158.82 7.887h4.241l4.064 10.604 3.711-10.604h4.243c-1.155 2.969-2.203 5.655-3.145 8.059-0.401 1.037-0.801 2.050-1.203 3.040-0.376 0.99-0.719 1.897-1.024 2.721-0.307 0.801-0.567 1.473-0.779 2.015s-0.341 0.86-0.389 0.954c-0.4 0.966-0.8 1.779-1.2 2.439-0.377 0.683-0.791 1.237-1.237 1.661-0.448 0.424-0.932 0.73-1.451 0.919-0.517 0.188-1.107 0.283-1.767 0.283-0.188 0-0.377-0.012-0.565-0.035-0.165 0-0.305-0.012-0.424-0.035-0.165-0.024-0.305-0.059-0.424-0.106v-3.358c0.896 0 1.579-0.2 2.051-0.601 0.493-0.401 0.871-0.907 1.129-1.52l0.355-0.884-6.185-15.552z"></path>
</symbol>
<symbol id="company-5" viewBox="0 0 179 32">
<path fill="#fff" style="fill: var(--color1, #fff)" d="M39.803 13.991c0-1.845 0.412-3.493 1.236-4.944 0.842-1.469 1.979-2.606 3.412-3.412 1.451-0.824 3.072-1.236 4.863-1.236 2.096 0 3.932 0.537 5.508 1.612s2.678 2.561 3.305 4.46h-4.326c-0.43-0.896-1.039-1.567-1.827-2.015-0.77-0.448-1.666-0.672-2.687-0.672-1.093 0-2.069 0.26-2.929 0.779-0.842 0.502-1.505 1.218-1.988 2.15-0.466 0.931-0.699 2.024-0.699 3.278 0 1.236 0.233 2.329 0.699 3.278 0.484 0.931 1.146 1.657 1.988 2.176 0.86 0.501 1.836 0.752 2.929 0.752 1.021 0 1.917-0.224 2.687-0.672 0.788-0.466 1.397-1.146 1.827-2.042h4.326c-0.627 1.917-1.729 3.412-3.305 4.487-1.558 1.057-3.394 1.585-5.508 1.585-1.791 0-3.412-0.403-4.863-1.209-1.433-0.824-2.57-1.961-3.412-3.412-0.824-1.451-1.236-3.099-1.236-4.944z"></path>
<path fill="#fff" style="fill: var(--color1, #fff)" d="M67.951 23.637c-1.433 0-2.723-0.313-3.869-0.94-1.146-0.645-2.051-1.549-2.714-2.714-0.645-1.164-0.967-2.508-0.967-4.030s0.331-2.866 0.994-4.030c0.681-1.164 1.603-2.060 2.767-2.687 1.164-0.645 2.463-0.967 3.896-0.967s2.732 0.322 3.896 0.967c1.164 0.627 2.078 1.523 2.741 2.687 0.681 1.164 1.021 2.508 1.021 4.030s-0.349 2.866-1.048 4.030c-0.681 1.164-1.612 2.069-2.794 2.714-1.164 0.627-2.472 0.94-3.923 0.94zM67.951 20.359c0.681 0 1.317-0.161 1.908-0.484 0.609-0.34 1.093-0.842 1.451-1.505s0.537-1.469 0.537-2.418c0-1.415-0.376-2.499-1.129-3.251-0.734-0.77-1.639-1.155-2.714-1.155s-1.979 0.385-2.714 1.155c-0.717 0.752-1.075 1.836-1.075 3.251s0.349 2.508 1.048 3.278c0.717 0.752 1.612 1.129 2.687 1.129z"></path>
<path fill="#fff" style="fill: var(--color1, #fff)" d="M96.961 8.294c1.827 0 3.296 0.564 4.406 1.693 1.128 1.111 1.693 2.669 1.693 4.675v8.732h-3.762v-8.222c0-1.164-0.296-2.051-0.887-2.66-0.591-0.627-1.397-0.94-2.418-0.94s-1.836 0.314-2.445 0.94c-0.591 0.609-0.887 1.496-0.887 2.66v8.222h-3.762v-8.222c0-1.164-0.296-2.051-0.887-2.66-0.591-0.627-1.397-0.94-2.418-0.94-1.039 0-1.863 0.314-2.472 0.94-0.591 0.609-0.887 1.496-0.887 2.66v8.222h-3.762v-14.885h3.762v1.8c0.484-0.627 1.102-1.12 1.854-1.478 0.77-0.358 1.612-0.537 2.526-0.537 1.164 0 2.203 0.251 3.117 0.752 0.914 0.484 1.621 1.182 2.123 2.096 0.484-0.86 1.182-1.549 2.096-2.069 0.931-0.519 1.935-0.779 3.009-0.779z"></path>
<path fill="#fff" style="fill: var(--color1, #fff)" d="M110.392 10.659c0.484-0.681 1.146-1.245 1.988-1.693 0.86-0.466 1.836-0.699 2.929-0.699 1.272 0 2.419 0.313 3.439 0.94 1.039 0.627 1.855 1.523 2.445 2.687 0.61 1.146 0.914 2.481 0.914 4.003s-0.304 2.875-0.914 4.057c-0.59 1.164-1.406 2.069-2.445 2.714-1.021 0.645-2.167 0.967-3.439 0.967-1.092 0-2.059-0.224-2.901-0.672-0.824-0.448-1.495-1.012-2.015-1.693v9.216h-3.762v-21.979h3.762v2.15zM118.264 15.898c0-0.896-0.187-1.666-0.564-2.311-0.358-0.663-0.842-1.164-1.451-1.505-0.591-0.34-1.236-0.511-1.934-0.511-0.681 0-1.325 0.179-1.935 0.537-0.59 0.34-1.075 0.842-1.451 1.505-0.358 0.663-0.537 1.442-0.537 2.338s0.179 1.675 0.537 2.338c0.376 0.663 0.86 1.173 1.451 1.532 0.61 0.34 1.255 0.51 1.935 0.51 0.698 0 1.343-0.179 1.934-0.537 0.609-0.358 1.092-0.869 1.451-1.532 0.377-0.663 0.564-1.451 0.564-2.364z"></path>
<path fill="#fff" style="fill: var(--color1, #fff)" d="M123.872 15.898c0-1.505 0.296-2.839 0.887-4.003 0.609-1.164 1.425-2.060 2.445-2.687 1.039-0.627 2.194-0.94 3.467-0.94 1.111 0 2.078 0.224 2.901 0.672 0.841 0.448 1.513 1.012 2.016 1.693v-2.123h3.788v14.885h-3.788v-2.176c-0.484 0.699-1.156 1.281-2.016 1.747-0.842 0.448-1.818 0.672-2.929 0.672-1.254 0-2.4-0.322-3.439-0.967-1.021-0.645-1.836-1.549-2.445-2.714-0.59-1.182-0.887-2.535-0.887-4.057zM135.588 15.952c0-0.914-0.18-1.693-0.539-2.338-0.357-0.663-0.841-1.164-1.451-1.505-0.608-0.358-1.262-0.537-1.961-0.537s-1.343 0.17-1.934 0.511-1.075 0.842-1.451 1.505c-0.358 0.645-0.538 1.415-0.538 2.311s0.18 1.684 0.538 2.364c0.376 0.663 0.859 1.173 1.451 1.532 0.609 0.358 1.254 0.537 1.934 0.537 0.699 0 1.353-0.17 1.961-0.51 0.609-0.358 1.093-0.86 1.451-1.505 0.359-0.663 0.539-1.451 0.539-2.364z"></path>
<path fill="#fff" style="fill: var(--color1, #fff)" d="M151.299 8.294c1.773 0 3.207 0.564 4.299 1.693 1.093 1.111 1.639 2.669 1.639 4.675v8.732h-3.761v-8.222c0-1.182-0.295-2.087-0.887-2.714-0.591-0.645-1.397-0.967-2.417-0.967-1.040 0-1.864 0.322-2.472 0.967-0.592 0.627-0.887 1.532-0.887 2.714v8.222h-3.763v-14.885h3.763v1.854c0.5-0.645 1.136-1.146 1.907-1.505 0.788-0.376 1.649-0.564 2.58-0.564z"></path>
<path fill="#fff" style="fill: var(--color1, #fff)" d="M175.055 8.509l-9.216 21.925h-4.004l3.224-7.416-5.965-14.509h4.219l3.843 10.398 3.896-10.398h4.004z"></path>
<path fill="#0328ee" style="fill: var(--color2, #0328ee)" d="M5.436 31.484h-2.682v-18.778h10.059v11.401c0 4.074-3.301 7.377-7.377 7.377z"></path>
<path fill="#0328ee" style="fill: var(--color2, #0328ee)" d="M26.225 12.707c0-6.48-5.253-11.736-11.735-11.736-0.569 0-1.129 0.043-1.677 0.122v11.614h13.412z"></path>
<path fill="#fff" style="fill: var(--color1, #fff)" d="M22.425 25.077c2.572-1.050 3.807-3.986 2.757-6.558s-3.986-3.807-6.558-2.757c-2.572 1.050-3.807 3.986-2.757 6.558s3.986 3.807 6.558 2.757z"></path>
</symbol>
<symbol id="facebook" viewBox="0 0 32 32">
<path fill="#fff" style="fill: var(--color1, #fff)" d="M28.571 0h-25.143c-1.929 0-3.429 1.571-3.429 3.429v25.143c0 1.929 1.5 3.429 3.429 3.429h9.786v-10.857h-4.5v-5.143h4.5v-3.857c0-4.429 2.643-6.929 6.643-6.929 2 0 4 0.357 4 0.357v4.357h-2.214c-2.214 0-2.929 1.357-2.929 2.786v3.286h4.929l-0.786 5.143h-4.143v10.857h9.857c1.857 0 3.429-1.5 3.429-3.429v-25.143c0-1.857-1.571-3.429-3.429-3.429z"></path>
</symbol>
<symbol id="linkedin" viewBox="0 0 34 32">
<path fill="#fff" style="fill: var(--color1, #fff)" d="M7.159 32v-21.405h-6.658v21.405h6.658zM3.794 7.732c2.148 0 3.866-1.79 3.866-3.937 0-2.076-1.718-3.794-3.866-3.794-2.076 0-3.794 1.718-3.794 3.794 0 2.148 1.718 3.937 3.794 3.937zM32.072 32v-11.74c0-5.727-1.288-10.166-8.018-10.166-3.222 0-5.369 1.79-6.3 3.436h-0.072v-2.935h-6.371v21.405h6.658v-10.595c0-2.792 0.501-5.441 3.937-5.441s3.508 3.15 3.508 5.655v10.38h6.658z"></path>
</symbol>
<symbol id="instagram" viewBox="0 0 32 32">
<path fill="#fff" style="fill: var(--color1, #fff)" d="M16.036 7.75c-4.571 0-8.214 3.714-8.214 8.214 0 4.571 3.643 8.214 8.214 8.214 4.5 0 8.214-3.643 8.214-8.214 0-4.5-3.714-8.214-8.214-8.214zM16.036 21.321c-2.929 0-5.357-2.357-5.357-5.357 0-2.929 2.357-5.286 5.357-5.286 2.929 0 5.286 2.357 5.286 5.286 0 3-2.357 5.357-5.286 5.357zM26.464 7.464c0-1.071-0.857-1.929-1.929-1.929s-1.928 0.857-1.928 1.929 0.857 1.929 1.928 1.929c1.072 0 1.929-0.857 1.929-1.929zM31.893 9.393c-0.143-2.571-0.714-4.857-2.571-6.714s-4.143-2.429-6.714-2.571c-2.643-0.143-10.572-0.143-13.214 0-2.571 0.143-4.786 0.714-6.714 2.571-1.857 1.857-2.429 4.143-2.571 6.714-0.143 2.643-0.143 10.571 0 13.214 0.143 2.571 0.714 4.786 2.571 6.714 1.929 1.857 4.143 2.429 6.714 2.571 2.643 0.143 10.571 0.143 13.214 0 2.571-0.143 4.857-0.714 6.714-2.571 1.857-1.929 2.429-4.143 2.571-6.714 0.143-2.643 0.143-10.572 0-13.214zM28.464 25.393c-0.5 1.429-1.643 2.5-3 3.072-2.143 0.857-7.143 0.643-9.429 0.643-2.357 0-7.357 0.214-9.429-0.643-1.429-0.572-2.5-1.643-3.071-3.072-0.857-2.071-0.643-7.071-0.643-9.428 0-2.286-0.214-7.286 0.643-9.429 0.571-1.357 1.643-2.429 3.071-3 2.071-0.857 7.071-0.643 9.429-0.643 2.286 0 7.286-0.214 9.429 0.643 1.357 0.5 2.428 1.643 3 3 0.857 2.143 0.643 7.143 0.643 9.429 0 2.357 0.214 7.357-0.643 9.428z"></path>
</symbol>
<symbol id="burger-open" viewBox="0 0 40 32">
<path fill="#fff" style="fill: var(--color1, #fff)" d="M0 0h40v3.2h-40v-3.2z"></path>
<path fill="#fff" style="fill: var(--color1, #fff)" d="M0 14.4h40v3.2h-40v-3.2z"></path>
<path fill="#fff" style="fill: var(--color1, #fff)" d="M0 28.8h40v3.2h-40v-3.2z"></path>
</symbol>
<symbol id="logo" viewBox="0 0 91 32">
<path fill="#fff" style="fill: var(--color1, #fff)" d="M31.333 16.118c0-1.056 0.228-1.995 0.685-2.817 0.457-0.832 1.091-1.477 1.903-1.934 0.822-0.467 1.751-0.7 2.786-0.7 1.269 0 2.355 0.335 3.258 1.005s1.507 1.584 1.812 2.741h-2.862c-0.213-0.447-0.518-0.787-0.914-1.020-0.386-0.233-0.827-0.35-1.325-0.35-0.802 0-1.452 0.279-1.949 0.837s-0.746 1.304-0.746 2.238 0.249 1.68 0.746 2.238c0.497 0.558 1.147 0.837 1.949 0.837 0.497 0 0.939-0.117 1.325-0.35 0.396-0.233 0.7-0.574 0.914-1.020h2.862c-0.305 1.157-0.908 2.071-1.812 2.741-0.903 0.66-1.99 0.99-3.258 0.99-1.035 0-1.964-0.228-2.786-0.685-0.812-0.467-1.446-1.112-1.903-1.934s-0.685-1.761-0.685-2.817zM45.976 14.397c0.305-0.467 0.685-0.832 1.142-1.096 0.457-0.274 0.964-0.411 1.523-0.411v2.756h-0.716c-0.65 0-1.137 0.142-1.462 0.426-0.325 0.274-0.487 0.761-0.487 1.462v3.944h-2.604v-8.496h2.604v1.416zM58.564 12.981l-5.329 12.531h-2.802l1.949-4.324-3.456-8.207h2.908l1.964 5.314 1.949-5.314h2.817zM62.11 14.184c0.253-0.396 0.604-0.716 1.051-0.959s0.969-0.365 1.568-0.365c0.701 0 1.335 0.178 1.903 0.533s1.015 0.863 1.34 1.523c0.335 0.66 0.502 1.426 0.502 2.299s-0.167 1.644-0.502 2.314c-0.325 0.66-0.771 1.172-1.34 1.538-0.569 0.355-1.203 0.533-1.903 0.533-0.589 0-1.111-0.122-1.568-0.365-0.447-0.244-0.797-0.558-1.051-0.944v5.238h-2.604v-12.546h2.604v1.203zM65.824 17.214c0-0.65-0.183-1.157-0.548-1.523-0.355-0.376-0.797-0.563-1.325-0.563-0.517 0-0.959 0.188-1.325 0.563-0.355 0.376-0.533 0.888-0.533 1.538s0.177 1.162 0.533 1.538c0.365 0.376 0.807 0.563 1.325 0.563s0.959-0.188 1.325-0.563c0.365-0.386 0.548-0.903 0.548-1.553zM74.575 19.269v2.208h-1.325c-0.944 0-1.68-0.228-2.207-0.685-0.528-0.467-0.792-1.223-0.792-2.269v-3.38h-1.035v-2.162h1.035v-2.071h2.603v2.071h1.705v2.162h-1.705v3.411c0 0.254 0.061 0.437 0.183 0.548s0.325 0.168 0.609 0.168h0.929zM79.893 21.599c-0.833 0-1.583-0.178-2.253-0.533-0.66-0.355-1.183-0.863-1.569-1.523-0.375-0.66-0.563-1.431-0.563-2.314 0-0.873 0.193-1.639 0.579-2.299 0.386-0.67 0.913-1.183 1.583-1.538s1.421-0.533 2.253-0.533c0.833 0 1.584 0.178 2.254 0.533s1.197 0.868 1.583 1.538c0.385 0.66 0.579 1.426 0.579 2.299s-0.198 1.644-0.594 2.314c-0.386 0.66-0.919 1.167-1.599 1.523-0.67 0.355-1.421 0.533-2.253 0.533zM79.893 19.345c0.497 0 0.919-0.183 1.263-0.548 0.355-0.365 0.533-0.888 0.533-1.568s-0.173-1.203-0.518-1.568c-0.335-0.365-0.751-0.548-1.249-0.548-0.507 0-0.929 0.183-1.263 0.548-0.335 0.355-0.503 0.878-0.503 1.568 0 0.68 0.163 1.203 0.487 1.568 0.335 0.365 0.751 0.548 1.249 0.548z"></path>
<path fill="#fff" style="fill: var(--color1, #fff)" opacity="0.4" d="M16.086 18.812c-0.046-0.117-4.095-7.806-4.156-7.923-0.213-0.497-0.594-0.921-1.096-1.213-1.263-0.702-2.877-0.292-3.608 0.921-0.502 0.833-0.472 1.813 0.015 2.587 0.046 0.102 3.912 7.47 3.988 7.586 0.046 0.117 0.107 0.219 0.167 0.336 0.213 0.497 0.594 0.921 1.096 1.213 1.263 0.702 2.877 0.307 3.608-0.906 0.518-0.833 0.472-1.827-0.015-2.602z"></path>
<path fill="#fff" style="fill: var(--color1, #fff)" d="M11.631 13.607c0.446-0.454 0.722-1.068 0.722-1.742 0-1.39-1.183-2.532-2.658-2.532-0.907 0-1.705 0.424-2.182 1.083-0.092 0.088-6.714 7.874-6.791 7.977-0.446 0.454-0.722 1.068-0.722 1.742 0 1.405 1.198 2.532 2.658 2.532 0.906 0 1.705-0.424 2.182-1.083 0.092-0.102 6.73-7.874 6.791-7.977z"></path>
<path fill="#fff" style="fill: var(--color1, #fff)" d="M22.612 13.607c0.445-0.454 0.721-1.068 0.721-1.742 0-1.405-1.197-2.532-2.655-2.532-0.905 0-1.703 0.424-2.179 1.083-0.092 0.088-6.721 7.874-6.798 7.977-0.445 0.454-0.721 1.068-0.721 1.742 0 1.405 1.197 2.532 2.655 2.532 0.905 0 1.703-0.424 2.179-1.083 0.107-0.102 6.721-7.874 6.798-7.977z"></path>
</symbol>
<symbol id="footer-logo" viewBox="0 0 164 32">
<path fill="#fff" style="fill: var(--color1, #fff)" opacity="0.4" d="M37.415 22.762c-0.105-0.281-9.459-18.757-9.6-19.038-0.492-1.194-1.371-2.213-2.532-2.915-2.919-1.686-6.646-0.703-8.334 2.213-1.16 2.002-1.090 4.356 0.035 6.217 0.105 0.246 9.037 17.95 9.213 18.23 0.105 0.281 0.246 0.527 0.387 0.808 0.492 1.194 1.371 2.213 2.532 2.915 2.919 1.686 6.646 0.738 8.334-2.178 1.196-2.002 1.090-4.391-0.035-6.252z"></path>
<path fill="#fff" style="fill: var(--color1, #fff)" d="M26.62 10.257c1.020-1.089 1.653-2.564 1.653-4.18 0-3.337-2.708-6.077-6.084-6.077-2.075 0-3.903 1.019-4.993 2.599-0.211 0.211-15.367 18.898-15.543 19.144-1.020 1.089-1.653 2.564-1.653 4.18 0 3.372 2.743 6.077 6.084 6.077 2.075 0 3.903-1.019 4.993-2.599 0.211-0.246 15.402-18.898 15.543-19.144z"></path>
<path fill="#fff" style="fill: var(--color1, #fff)" d="M52.747 10.257c1.020-1.089 1.653-2.564 1.653-4.18 0-3.372-2.743-6.077-6.084-6.077-2.075 0-3.903 1.019-4.993 2.599-0.211 0.211-15.402 18.898-15.578 19.144-1.020 1.089-1.653 2.564-1.653 4.18 0 3.372 2.743 6.077 6.084 6.077 2.075 0 3.903-1.019 4.993-2.599 0.246-0.246 15.402-18.898 15.578-19.144z"></path>
<path fill="#fff" style="fill: var(--color1, #fff)" d="M67.2 21.948v-12.096h7.165v1.756h-5.41v3.41h4.402v1.764h-4.402v5.166h-1.756z"></path>
<path fill="#fff" style="fill: var(--color1, #fff)" d="M76.047 11.389v-1.705h1.756v1.705h-1.756zM76.047 21.948v-9.072h1.756v9.072h-1.756z"></path>
<path fill="#fff" style="fill: var(--color1, #fff)" d="M86.692 21.948v-4.46c0-0.353-0.031-0.714-0.092-1.084-0.056-0.375-0.168-0.722-0.336-1.042-0.162-0.319-0.395-0.577-0.697-0.773-0.297-0.196-0.686-0.294-1.168-0.294-0.314 0-0.61 0.053-0.89 0.16-0.28 0.101-0.526 0.266-0.739 0.496-0.207 0.23-0.372 0.532-0.496 0.907-0.118 0.375-0.176 0.832-0.176 1.369l-1.092-0.412c0-0.823 0.154-1.548 0.462-2.176 0.308-0.633 0.75-1.126 1.327-1.478s1.274-0.529 2.092-0.529c0.627 0 1.154 0.101 1.579 0.302s0.77 0.468 1.033 0.798c0.269 0.325 0.473 0.68 0.613 1.067s0.235 0.764 0.286 1.134c0.050 0.37 0.076 0.694 0.076 0.974v5.040h-1.781zM80.317 21.948v-9.072h1.571v2.621h0.21v6.451h-1.781z"></path>
<path fill="#fff" style="fill: var(--color1, #fff)" d="M93.223 22.2c-0.672 0-1.235-0.123-1.688-0.37-0.454-0.252-0.798-0.582-1.033-0.991-0.23-0.414-0.344-0.868-0.344-1.361 0-0.459 0.081-0.862 0.244-1.21s0.403-0.641 0.722-0.882c0.319-0.246 0.711-0.445 1.176-0.596 0.403-0.118 0.86-0.221 1.369-0.311s1.044-0.174 1.604-0.252c0.566-0.078 1.126-0.157 1.68-0.235l-0.638 0.353c0.011-0.711-0.14-1.238-0.454-1.579-0.308-0.347-0.84-0.521-1.596-0.521-0.476 0-0.913 0.112-1.31 0.336-0.398 0.218-0.675 0.582-0.832 1.092l-1.638-0.504c0.224-0.778 0.65-1.397 1.277-1.856 0.633-0.459 1.473-0.689 2.52-0.689 0.812 0 1.518 0.14 2.117 0.42 0.605 0.274 1.047 0.711 1.327 1.31 0.146 0.297 0.235 0.61 0.269 0.941s0.050 0.686 0.050 1.067v5.586h-1.554v-2.075l0.302 0.269c-0.375 0.694-0.854 1.212-1.436 1.554-0.577 0.336-1.288 0.504-2.134 0.504zM93.534 20.764c0.498 0 0.927-0.087 1.285-0.26 0.358-0.179 0.647-0.406 0.865-0.68s0.361-0.56 0.428-0.857c0.095-0.269 0.148-0.571 0.16-0.907 0.017-0.336 0.025-0.605 0.025-0.806l0.571 0.21c-0.554 0.084-1.058 0.16-1.512 0.227s-0.865 0.134-1.235 0.202c-0.364 0.062-0.689 0.137-0.974 0.227-0.241 0.084-0.456 0.185-0.647 0.302-0.185 0.118-0.333 0.26-0.445 0.428-0.106 0.168-0.16 0.372-0.16 0.613 0 0.235 0.059 0.454 0.176 0.655 0.118 0.196 0.297 0.353 0.538 0.47s0.549 0.176 0.924 0.176z"></path>
<path fill="#fff" style="fill: var(--color1, #fff)" d="M106.593 21.948v-4.46c0-0.353-0.031-0.714-0.092-1.084-0.056-0.375-0.168-0.722-0.336-1.042-0.162-0.319-0.395-0.577-0.697-0.773-0.297-0.196-0.686-0.294-1.168-0.294-0.314 0-0.61 0.053-0.89 0.16-0.28 0.101-0.526 0.266-0.739 0.496-0.207 0.23-0.372 0.532-0.496 0.907-0.118 0.375-0.176 0.832-0.176 1.369l-1.092-0.412c0-0.823 0.154-1.548 0.462-2.176 0.308-0.633 0.75-1.126 1.327-1.478s1.274-0.529 2.092-0.529c0.627 0 1.154 0.101 1.579 0.302s0.77 0.468 1.033 0.798c0.269 0.325 0.474 0.68 0.613 1.067s0.235 0.764 0.286 1.134c0.050 0.37 0.075 0.694 0.075 0.974v5.040h-1.78zM100.217 21.948v-9.072h1.571v2.621h0.21v6.451h-1.781z"></path>
<path fill="#fff" style="fill: var(--color1, #fff)" d="M114.327 22.2c-0.929 0-1.719-0.207-2.369-0.622s-1.148-0.983-1.494-1.705c-0.342-0.722-0.515-1.543-0.522-2.461 0.006-0.935 0.186-1.761 0.538-2.478 0.353-0.722 0.858-1.288 1.513-1.697s1.442-0.613 2.361-0.613c0.991 0 1.837 0.246 2.537 0.739 0.706 0.493 1.17 1.168 1.394 2.024l-1.747 0.504c-0.173-0.51-0.459-0.904-0.857-1.184-0.391-0.286-0.843-0.428-1.353-0.428-0.577 0-1.050 0.137-1.42 0.412-0.369 0.269-0.643 0.638-0.822 1.109s-0.272 1.008-0.277 1.613c0.005 0.935 0.218 1.691 0.638 2.268 0.426 0.577 1.053 0.865 1.882 0.865 0.565 0 1.022-0.129 1.37-0.386 0.353-0.263 0.622-0.638 0.806-1.126l1.78 0.42c-0.297 0.885-0.786 1.565-1.47 2.041-0.683 0.47-1.511 0.706-2.486 0.706z"></path>
<path fill="#fff" style="fill: var(--color1, #fff)" d="M123.773 22.2c-0.901 0-1.694-0.196-2.378-0.588-0.677-0.398-1.206-0.949-1.587-1.655-0.375-0.711-0.563-1.534-0.563-2.47 0-0.991 0.186-1.851 0.555-2.579 0.375-0.728 0.896-1.291 1.563-1.688s1.442-0.596 2.326-0.596c0.925 0 1.711 0.216 2.361 0.647 0.65 0.426 1.134 1.033 1.454 1.823 0.324 0.79 0.453 1.728 0.386 2.814h-1.756v-0.638c-0.012-1.053-0.213-1.831-0.605-2.335-0.386-0.504-0.977-0.756-1.773-0.756-0.879 0-1.539 0.277-1.982 0.832s-0.663 1.355-0.663 2.402c0 0.997 0.221 1.77 0.663 2.318 0.443 0.543 1.081 0.815 1.915 0.815 0.549 0 1.022-0.123 1.42-0.37 0.403-0.252 0.717-0.61 0.941-1.075l1.723 0.546c-0.353 0.812-0.889 1.442-1.605 1.89-0.717 0.442-1.515 0.664-2.394 0.664zM120.539 17.908v-1.369h6.477v1.369h-6.477z"></path>
<path fill="#fff" style="fill: var(--color1, #fff)" d="M129.774 21.948v-12.096h7.165v1.756h-5.41v3.41h4.402v1.764h-4.402v5.166h-1.755z"></path>
<path fill="#fff" style="fill: var(--color1, #fff)" d="M138.621 21.948v-12.348h1.755v12.348h-1.755z"></path>
<path fill="#fff" style="fill: var(--color1, #fff)" d="M146.838 22.2c-0.908 0-1.694-0.204-2.361-0.613s-1.182-0.972-1.546-1.688c-0.358-0.722-0.538-1.554-0.538-2.495 0-0.946 0.185-1.778 0.555-2.495 0.369-0.722 0.887-1.282 1.553-1.68 0.667-0.403 1.445-0.605 2.336-0.605 0.907 0 1.694 0.204 2.361 0.613 0.666 0.409 1.181 0.972 1.546 1.688 0.364 0.717 0.545 1.543 0.545 2.478 0 0.946-0.185 1.781-0.554 2.503-0.365 0.717-0.88 1.28-1.546 1.688-0.667 0.403-1.451 0.605-2.352 0.605zM146.838 20.545c0.867 0 1.515-0.291 1.94-0.874 0.431-0.588 0.646-1.344 0.646-2.268 0-0.946-0.219-1.702-0.655-2.268-0.431-0.571-1.075-0.857-1.932-0.857-0.589 0-1.073 0.134-1.454 0.403-0.381 0.263-0.663 0.63-0.848 1.1-0.185 0.465-0.277 1.005-0.277 1.621 0 0.952 0.219 1.714 0.655 2.285 0.437 0.571 1.078 0.857 1.924 0.857z"></path>
<path fill="#fff" style="fill: var(--color1, #fff)" d="M154.74 21.948l-2.772-9.080 1.739 0.008 1.899 6.224 1.915-6.224h1.513l1.915 6.224 1.899-6.224h1.73l-2.772 9.072h-1.411l-2.116-6.569-2.125 6.569h-1.411z"></path>
</symbol>
</defs>
</svg>
